<svg xmlns="http://www.w3.org/2000/svg" xml:space="preserve" style="fill-rule:evenodd;clip-rule:evenodd;stroke-linejoin:round;stroke-miterlimit:2" viewBox="-0.03 0 241.38 256"><path d="M120.66 0c2.31 0 4.63.5 6.74 1.46l94.66 40.17c11.06 4.67 19.31 15.58 19.26 28.76-.25 49.87-20.76 141.12-107.39 182.6a30.71 30.71 0 0 1-26.54 0C20.76 211.5.25 120.25 0 70.38-.05 57.2 8.2 46.3 19.26 41.63l94.71-40.17A16 16 0 0 1 120.66 0Z" style="fill:url(#a);fill-rule:nonzero"/><path d="M60.4 109.53V87.48c0-7.37 5.98-13.35 13.35-13.35h94.1c7.36 0 13.35 5.98 13.35 13.35v67.25c0 7.37-5.99 13.35-13.36 13.35h-33.37c.5-1.41.77-2.94.77-4.52v-9.25h32.45V87.7H74.03v25.38l-1.16-.97-.01-.01a13.5 13.5 0 0 0-12.46-2.57Zm2.09 57.75a4.13 4.13 0 0 1-2.37-3.72v-41.1a4.1 4.1 0 0 1 6.74-3.15l22.03 18.35v-15.2a4.1 4.1 0 0 1 6.74-3.15l22.02 18.35v-15.2a4.1 4.1 0 1 1 8.22 0v41.1a4.1 4.1 0 1 1-8.22 0v-15.2l-22.02 18.36a4.1 4.1 0 0 1-6.74-3.16v-15.2l-22.03 18.36a4.1 4.1 0 0 1-4.37.56Z" style="fill:#fff"/><defs><radialGradient id="a" cx="0" cy="0" r="1" gradientTransform="matrix(0 256 -256 0 120.66 0)" gradientUnits="userSpaceOnUse"><stop offset="0" style="stop-color:#ff0100;stop-opacity:1"/><stop offset="1" style="stop-color:#bb0100;stop-opacity:1"/></radialGradient></defs></svg>